<?xml version="1.0" encoding="UTF-8"?>
<svg version="1.1" xmlns="http://www.w3.org/2000/svg" xmlns:xlink="http://www.w3.org/1999/xlink">
<defs>
<linearGradient id="b" x1=".2" x2=".8" y1="0" y2="1"><stop offset="0%" stop-color="#fff"/><stop offset="20%" stop-color="#fff" stop-opacity=".5"/><stop offset="21%" stop-color="#fff" stop-opacity=".5"/><stop offset="100%" stop-color="#fff" stop-opacity=".1"/></linearGradient><mask id="a"><path d="M40.93.5h-1.51a43.31 43.31 0 00-22.31 6.26c-1.47.91-2.77 1.76-3.95 2.63l-.94.71a48.76 48.76 0 00-3.8 3.3 45.9 45.9 0 00-4.7 5.32 37.61 37.61 0 00-2.88 4.31l-.11.19-.23.45v52.05l.23.41.11.19a40.42 40.42 0 002.88 4.35 46.38 46.38 0 004.72 5.3c.76.72 1.54 1.42 2.34 2.08.48.4.95.81 1.44 1.19a49.76 49.76 0 004.23 2.93 43.44 43.44 0 0023 6.67h1.49a44.32 44.32 0 0027.21-9.6 48.35 48.35 0 003.78-3.27 43.14 43.14 0 007.6-9.65l.34-.6V23.67l-.18-.32-.16-.28a40.72 40.72 0 00-2.83-4.25 44.4 44.4 0 00-4.76-5.38 45.34 45.34 0 00-3.8-3.3l-.94-.71a47.49 47.49 0 00-4-2.64A43.68 43.68 0 0040.9.5z" stroke-miterlimit="10" stroke="#fff" stroke-width="var(--stroke-width, 1)"/></mask>
</defs>
<symbol id="i-arrow-down" viewBox="0 0 12 24" fill="none" xmlns="http://www.w3.org/2000/svg"><path fill-rule="evenodd" clip-rule="evenodd" d="M6.489 22.104V0h-1v22.084L.71 17.346 0 18.05l5.644 5.596.355.352.355-.352 5.644-5.596-.71-.704-4.799 4.758z" fill="currentColor"/></symbol>
<symbol id="i-arrow-right" viewBox="0 0 18 10" fill="none" xmlns="http://www.w3.org/2000/svg"><path fill-rule="evenodd" clip-rule="evenodd" d="M15.086 4.506H1v1h14.073l-2.809 2.79.71.704 3.673-3.648.355-.353-.355-.352L12.974 1l-.71.705 2.822 2.802z" fill="currentColor"/><path d="M1 4.506v-.1H.9v.1H1zm14.086 0v.1h.242l-.172-.171-.07.07zM1 5.506H.9v.1H1v-.1zm14.073 0l.07.07.173-.17h-.243v.1zm-2.809 2.79l-.07-.072-.072.071.072.071.07-.07zm.71.704l-.07.07.07.07.07-.07-.07-.07zm3.673-3.648l-.07-.071.07.07zm.355-.353l.07.071.072-.07-.072-.071-.07.07zm-.355-.352l-.07.071.07-.07zM12.974 1l.07-.071-.07-.07-.07.07.07.07zm-.71.705l-.07-.071-.072.07.072.072.07-.071zM1 4.606h14.086v-.2H1v.2zm.1.9v-1H.9v1h.2zm13.973-.1H1v.2h14.073v-.2zm-2.739 2.96l2.81-2.79-.141-.141-2.81 2.79.142.141zm.71.563l-.71-.705-.14.142.71.705.14-.142zm3.533-3.648l-3.674 3.648.141.142 3.674-3.648-.141-.142zm.354-.352l-.354.352.14.142.355-.353-.14-.141zm-.354-.21l.354.351.141-.141-.354-.353-.141.142zm-3.674-3.65l3.674 3.65.14-.143L13.045.928l-.14.142zm-.569.706l.71-.705-.14-.142-.71.705.14.142zm2.822 2.66l-2.822-2.802-.14.142 2.821 2.802.141-.142z" fill="currentColor"/></symbol>
<symbol id="i-check-circle" xmlns="http://www.w3.org/2000/svg" viewBox="0 0 20 20" fill="currentColor" class="w-5 h-5"><path fill-rule="evenodd" d="M10 18a8 8 0 100-16 8 8 0 000 16zm3.857-9.809a.75.75 0 00-1.214-.882l-3.483 4.79-1.88-1.88a.75.75 0 10-1.06 1.061l2.5 2.5a.75.75 0 001.137-.089l4-5.5z" clip-rule="evenodd"/></symbol>
<symbol id="i-exclamation-circle" xmlns="http://www.w3.org/2000/svg" viewBox="0 0 20 20" fill="currentColor" class="w-5 h-5"><path fill-rule="evenodd" d="M18 10a8 8 0 11-16 0 8 8 0 0116 0zm-8-5a.75.75 0 01.75.75v4.5a.75.75 0 01-1.5 0v-4.5A.75.75 0 0110 5zm0 10a1 1 0 100-2 1 1 0 000 2z" clip-rule="evenodd"/></symbol>
<symbol id="i-logo-daniel" viewBox="0 0 198 40" fill="none" xmlns="http://www.w3.org/2000/svg"><path d="M0 .157h16.15c13.697 0 19.989 6.957 19.989 19.55S28.59 39.914 16.15 39.914H0V.157zM7.547 6.45v27.236h8.011c9.331 0 13.04-5.036 13.04-13.979s-3.902-13.25-13.432-13.25H7.547V6.45zM62.604 29.771H45.662l-3.438 10.136h-7.812L49.165.157h10.194l14.759 39.757h-8.075l-3.439-10.136v-.007zm-14.959-5.635h12.969l-1.655-4.9c-1.391-4.043-2.782-8.55-3.973-12.522H53.33a338.779 338.779 0 01-4.038 12.522l-1.655 4.9h.007zM92.244 21.821C90.061 17.778 87.28 11.55 85.296 6.78l-1.191.135c.4 5.764.727 14.115.727 19.35v13.65H77.75V.157h10.786l8.738 15.572c2.911 5.171 5.893 11.864 7.676 16.435l1.191-.064c-.399-5.636-.727-12.922-.727-18.157V.157h6.948v39.757h-9.93L92.237 21.821h.007zM120.372 39.914V.157h7.547v39.757h-7.547zM135.923.157h28.656v6.557H143.47v9.807h19.126v6.493H143.47V33.35h21.044v6.557h-28.591V.157zM179.131 33.15h17.934v6.757h-25.481V.157h7.547V33.15z" fill="currentColor"/></symbol>
<symbol id="i-logo-footer" viewBox="0 0 1376 160" fill="none" xmlns="http://www.w3.org/2000/svg"><path d="M0 3.287h61.004c51.734 0 75.499 26.245 75.499 73.749 0 47.504-28.507 76.227-75.5 76.227H0V3.287zm28.508 23.739v102.741h30.259c35.244 0 49.255-18.996 49.255-52.731 0-33.736-14.738-49.983-50.737-49.983H28.508v-.027zM236.469 115.001h-63.994l-12.988 38.235h-29.504L185.705 3.287h38.504l55.75 149.976h-30.502l-12.988-38.235v-.027zm-56.503-21.26h48.986L222.7 75.257c-5.254-15.25-10.508-32.253-15.008-47.234h-6.251c-4.5 15.008-9.997 31.983-15.251 47.234l-6.251 18.484h.027zM348.426 85.011c-8.245-15.25-18.754-38.747-26.245-56.746l-4.5.512c1.509 21.745 2.749 53.243 2.749 72.994v51.492h-26.757V3.287h40.741l33.008 58.74c10.993 19.508 22.256 44.756 28.993 62.001l4.5-.243c-1.509-21.259-2.749-48.743-2.749-68.494V3.287h26.245v149.976h-37.508l-38.504-68.252h.027zM454.67 153.263V3.287h28.508v149.976H454.67zM513.41 3.287h108.238v24.736h-79.73v36.995h72.239v24.493h-72.239V128.5h79.487v24.736H513.41V3.287zM676.616 127.746h67.739v25.49h-96.247V3.287h28.508v124.459zM868.329 97.002h-27.995v56.234h-28.508V3.287h62.997c37.508 0 55.237 15.736 55.237 45.483 0 23.496-11.99 38.99-33.007 45.24l41.738 56.505v2.748H905.54l-37.238-56.234.027-.027zm-27.995-69.734v45.753h31.983c19.508 0 29.747-7.491 29.747-23.496 0-16.006-7.76-22.257-29.235-22.257h-32.495zM1107.04 3.287h120.98v26.245h-46.24v123.731h-28.51V29.531h-46.23V3.287zM1347.49 153.263v-62h-72.48v62h-28.51V3.287h28.51v62.485h72.48V3.287H1376v149.976h-28.51zM1024.23 26.81c8.95 0 17.57 2.264 25.6 6.737 1.56.862 3.13 1.859 4.64 2.883.37.27.75.512 1.13.781a54.876 54.876 0 014.42 3.584 47.85 47.85 0 014.82 5.038v67.444a53.813 53.813 0 01-4.85 5.012c-1.43 1.266-2.88 2.478-4.39 3.556-6.55 4.743-17.3 10.428-31.37 10.428h-2.61c-9.24 0-18.11-2.425-26.38-7.194a54.292 54.292 0 01-4.958-3.207c-.565-.404-1.104-.862-1.67-1.293a56.198 56.198 0 01-2.749-2.29c-1.697-1.509-3.314-3.234-4.85-5.066V45.86a50.658 50.658 0 014.823-5.038 49.71 49.71 0 014.419-3.584c.351-.27.728-.512 1.105-.781a55.946 55.946 0 014.662-2.91c8.028-4.473 16.628-6.737 25.598-6.737h2.61zm0-26.81h-2.61c-15.95 0-28.993 4.742-38.64 10.131-2.533 1.402-4.796 2.857-6.844 4.258-.566.377-1.104.781-1.643 1.158a76.814 76.814 0 00-6.575 5.335 76.061 76.061 0 00-8.137 8.596c-1.86 2.29-3.557 4.634-4.985 6.979l-.189.296-.404.674v84.284l.404.673.189.323c1.428 2.345 3.125 4.689 4.985 6.979a74.356 74.356 0 008.164 8.623 79.04 79.04 0 004.042 3.368c.835.646 1.643 1.293 2.506 1.913 2.128 1.563 4.58 3.152 7.329 4.742 9.754 5.632 23.198 10.805 39.798 10.805h2.61c21.26 0 37.38-8.461 47.13-15.547a79.79 79.79 0 006.55-5.308c5.31-4.77 9.86-10.159 13.17-15.601l.6-.97V37.427l-.3-.512-.27-.458c-1.4-2.318-3.07-4.608-4.9-6.871-2.46-3.045-5.2-5.982-8.25-8.704a83.053 83.053 0 00-6.6-5.335c-.51-.377-1.08-.754-1.64-1.158-2.05-1.401-4.31-2.856-6.85-4.258C1053.23 4.77 1040.18 0 1024.23 0z" fill="currentColor"/></symbol>
<symbol id="i-logo-roth" viewBox="0 0 148 42" fill="none" xmlns="http://www.w3.org/2000/svg"><path d="M14.823 25.601H7.478v14.842H0V.868h16.526c9.84 0 14.49 4.153 14.49 12.004 0 6.2-3.145 10.29-8.658 11.94l10.949 14.912v.726h-8.723l-9.768-14.842.007-.007zM7.478 7.197v12.075h8.39c5.118 0 7.804-1.977 7.804-6.201 0-4.224-2.035-5.874-7.669-5.874H7.478zM77.442.868h31.738v6.926H97.05V40.45h-7.478V7.794h-12.13V.868zM140.522 40.45V24.086h-19.015V40.45h-7.478V.868h7.478v16.49h19.015V.869H148V40.45h-7.478zM55.72 7.076c2.348 0 4.61.597 6.716 1.778.41.227.82.49 1.216.76.099.072.198.136.297.207.395.291.784.604 1.159.946.438.398.87.846 1.265 1.33v17.8a13.93 13.93 0 01-1.272 1.322c-.375.334-.757.654-1.152.939-1.718 1.251-4.538 2.752-8.228 2.752h-.686c-2.424 0-4.75-.64-6.92-1.899a14.23 14.23 0 01-1.3-.846c-.149-.107-.29-.228-.439-.341a14.637 14.637 0 01-.72-.605c-.446-.398-.87-.853-1.273-1.337V12.104a13.325 13.325 0 012.425-2.276c.091-.071.19-.135.29-.206.395-.278.805-.534 1.222-.768 2.107-1.18 4.361-1.778 6.715-1.778h.686zm0-7.076h-.685C50.851 0 47.43 1.252 44.9 2.674c-.664.37-1.258.754-1.795 1.123-.149.1-.29.207-.431.306-.594.434-1.174.903-1.725 1.408a20.034 20.034 0 00-2.135 2.269 16.959 16.959 0 00-1.308 1.842l-.05.078-.105.178v22.244l.106.178.05.085c.374.62.82 1.238 1.307 1.842a19.577 19.577 0 002.142 2.276c.346.313.7.604 1.06.889.22.17.431.341.657.505.559.412 1.202.832 1.923 1.251C47.154 40.635 50.681 42 55.035 42h.686c5.577 0 9.804-2.233 12.363-4.103a21.151 21.151 0 001.717-1.401c1.393-1.259 2.587-2.681 3.457-4.118l.155-.256V9.878l-.077-.135-.071-.121a16.414 16.414 0 00-1.287-1.814 19.354 19.354 0 00-2.162-2.297 21.768 21.768 0 00-1.732-1.408c-.135-.1-.283-.199-.431-.306-.538-.37-1.131-.753-1.796-1.123C63.327 1.259 59.906 0 55.721 0z" fill="currentColor"/></symbol>
<symbol id="i-logo" viewBox="0 0 146 16" fill="none" xmlns="http://www.w3.org/2000/svg"><path d="M0 .063h6.46c5.479 0 7.996 2.783 7.996 7.82 0 5.037-3.02 8.083-7.996 8.083H0V.063zM3.019 2.58v10.894h3.204c3.733 0 5.216-2.014 5.216-5.591 0-3.577-1.56-5.3-5.373-5.3H3.02V2.58zM25.042 11.909h-6.777l-1.375 4.054h-3.125l5.9-15.9h4.078l5.904 15.903h-3.23l-1.375-4.055v-.002zm-5.984-2.255h5.188l-.662-1.96a136.522 136.522 0 01-1.59-5.008h-.662a135.646 135.646 0 01-1.615 5.008l-.662 1.96h.003zM36.898 8.728c-.873-1.617-1.986-4.108-2.78-6.017l-.476.055c.16 2.305.291 5.645.291 7.74v5.46h-2.834V.063h4.315l3.495 6.228c1.165 2.069 2.357 4.746 3.07 6.575l.477-.026c-.16-2.254-.29-5.169-.29-7.263V.063h2.778v15.903h-3.972l-4.077-7.238h.003zM48.149 15.966V.063h3.019v15.903h-3.02zM54.37.063h11.462v2.623h-8.444v3.922h7.65v2.598h-7.65v4.134h8.418v2.623H54.369V.063zM71.653 13.26h7.173v2.703H68.634V.063h3.019V13.26zM95.315 9.753h-2.779v5.654h-2.83V.33h6.254c3.723 0 5.483 1.582 5.483 4.573 0 2.362-1.19 3.92-3.277 4.548l4.143 5.681v.277h-3.3l-3.696-5.654.002-.003zm-2.779-7.011v4.6h3.175c1.936 0 2.953-.753 2.953-2.363 0-1.609-.77-2.237-2.902-2.237h-3.226zM119.009.33h12.009v2.64h-4.59v12.44h-2.829V2.97h-4.59V.33zM142.877 15.41V9.175h-7.195v6.233h-2.829V.332h2.829v6.282h7.195V.331h2.83V15.41h-2.83zM110.79 2.696c.888 0 1.744.227 2.541.677.155.087.31.187.46.29.038.027.075.051.112.078.15.111.297.23.439.36.166.152.329.323.479.507v6.781a5.344 5.344 0 01-.918.862c-.649.476-1.717 1.048-3.113 1.048h-.259a5.136 5.136 0 01-2.619-.723 5.487 5.487 0 01-.492-.323c-.056-.04-.109-.086-.165-.13a4.832 4.832 0 01-.755-.74V4.612a5.103 5.103 0 01.918-.867c.034-.027.072-.051.109-.079.15-.105.305-.203.463-.292a5.11 5.11 0 012.541-.677h.259zm0-2.696h-.259a7.74 7.74 0 00-3.835 1.019c-.252.14-.477.287-.68.428-.056.038-.109.078-.163.116a7.66 7.66 0 00-1.955 2.102l-.019.03-.04.068v8.474l.04.068.019.032c.142.236.31.472.495.702a7.362 7.362 0 001.211 1.206c.083.065.163.13.249.192.211.157.455.317.728.477a7.775 7.775 0 003.95 1.086h.259c2.111 0 3.71-.85 4.678-1.563a8.06 8.06 0 00.65-.534 7.146 7.146 0 001.308-1.568l.059-.098V3.763l-.03-.052-.026-.046a7.345 7.345 0 00-1.306-1.566 8.066 8.066 0 00-.655-.536c-.051-.038-.107-.076-.163-.116a8.382 8.382 0 00-.679-.428A7.772 7.772 0 00110.79 0z" fill="currentColor"/></symbol>
<symbol id="i-pause" viewBox="0 0 14 17" fill="none" xmlns="http://www.w3.org/2000/svg"><path d="M2 17V0M12 17V0" stroke="currentColor" stroke-width="4"/></symbol>
<symbol id="i-play" viewBox="0 0 14 17" fill="none" xmlns="http://www.w3.org/2000/svg"><path d="M0 17V0l14 8.5L0 17z" fill="currentColor"/></symbol>
<symbol id="i-quote" viewBox="0 0 34 42" fill="none" xmlns="http://www.w3.org/2000/svg"><path d="M17.307 1h-.608C12.985 1 9.949 2.196 7.7 3.543a19.562 19.562 0 00-1.974 1.36 18.543 18.543 0 00-3.452 3.534 16.318 16.318 0 00-1.14 1.726l-.064.117-.071.127v21.188l.136.244c.771 1.368 1.83 2.724 3.065 3.922.49.474 1.002.923 1.524 1.331C7.996 38.874 11.743 41 16.695 41h.608c3.866 0 6.996-1.297 9.266-2.715a19.515 19.515 0 001.704-1.193c.197-.153.389-.318.582-.481.322-.272.638-.554.942-.85.701-.679 1.337-1.412 1.904-2.167.431-.574.829-1.161 1.161-1.754l.045-.078.093-.167V10.407l-.093-.167-.043-.077a15.882 15.882 0 00-1.161-1.755 18.42 18.42 0 00-3.43-3.502A19.248 19.248 0 0026.3 3.545C24.056 2.195 21.02 1 17.307 1z" stroke="currentColor" stroke-width=".5"/><path fill-rule="evenodd" clip-rule="evenodd" d="M26.679 17.8c0 2.427-1.95 4.4-4.346 4.4a4.327 4.327 0 01-3.554-1.87c.068 4.13 3.409 7.47 7.505 7.47.218 0 .395.18.395.4 0 .22-.177.4-.395.4-4.575 0-8.297-3.768-8.297-8.4v-2.4m0-.012c.007-2.421 1.953-4.388 4.346-4.389 2.397 0 4.346 1.974 4.346 4.4m-10.272 0c0 2.428-1.95 4.4-4.346 4.4a4.328 4.328 0 01-3.554-1.87c.068 4.132 3.409 7.471 7.505 7.471.218 0 .395.18.395.4 0 .22-.177.4-.395.4-4.575 0-8.297-3.768-8.297-8.4V17.8c0-2.427 1.949-4.4 4.346-4.4 2.397 0 4.346 1.973 4.346 4.4z" fill="currentColor"/></symbol>
<symbol id="i-shape-doubled-lines" xmlns="http://www.w3.org/2000/svg" viewBox="0 0 139.2 172.19"><path fill="none" stroke="currentColor" stroke-miterlimit="10" d="M70.9.5a75.68 75.68 0 0138.86 10.88c2.53 1.51 4.82 3.07 6.88 4.58l1.64 1.25a87 87 0 016.63 5.74 79.18 79.18 0 018.28 9.39 69.07 69.07 0 014.9 7.38l.28.5.31.54v90.68l-.59 1a75.69 75.69 0 01-13.24 16.79 81.59 81.59 0 01-6.58 5.7c-9.81 7.62-26 16.72-47.38 16.72h-2.6a75.58 75.58 0 01-40-11.62 85.74 85.74 0 01-7.36-5.1c-.85-.66-1.67-1.37-2.51-2.07a77.063 77.063 0 01-4.07-3.63 78.57 78.57 0 01-8.26-9.24 68.09 68.09 0 01-5-7.5l-.19-.34-.4-.71V40.76l.4-.66.19-.38a66.25 66.25 0 015-7.51 79 79 0 018.19-9.26 86.15 86.15 0 016.62-5.73l1.65-1.25c2.05-1.51 4.34-3.07 6.88-4.58A75.44 75.44 0 0168.27.5z"/><path fill="none" stroke="currentColor" stroke-miterlimit="10" opacity=".5" d="M70.67 15.1a63.11 63.11 0 0132.34 9c2.1 1.25 4 2.54 5.72 3.8.47.34.93.69 1.37 1a70.32 70.32 0 015.51 4.76 66.23 66.23 0 016.9 7.79 58.22 58.22 0 014.09 6.12l.24.41.25.45v75.22l-.49.87a62.76 62.76 0 01-11 13.92 68.93 68.93 0 01-5.48 4.73 64.33 64.33 0 01-39.43 13.93H68.5a63.08 63.08 0 01-33.3-9.64 71 71 0 01-6.11-4.23c-.71-.55-1.4-1.13-2.09-1.71-1.16-1-2.3-2-3.39-3a65.71 65.71 0 01-6.84-7.69 57 57 0 01-4.18-6.23l-.16-.28-.33-.59V48.49l.33-.59.16-.27a56.39 56.39 0 014.17-6.23 65.44 65.44 0 016.82-7.68 69.89 69.89 0 015.51-4.75l1.37-1c1.71-1.25 3.61-2.55 5.72-3.8a63 63 0 0132.31-9.07z"/></symbol>
<symbol id="i-shape-doubled" viewBox="0 0 139 172" fill="none" xmlns="http://www.w3.org/2000/svg"><path d="M70.808 1.204c13.494 0 26.426 3.627 38.427 10.777a80.925 80.925 0 016.815 4.542c.562.41 1.108.826 1.63 1.228a80.455 80.455 0 016.558 5.69 78.56 78.56 0 018.196 9.284c1.966 2.608 3.556 4.99 4.864 7.294l.281.498.201.36v90.262l-.482.858c-3.299 5.794-7.826 11.54-13.1 16.611a80.608 80.608 0 01-6.518 5.642c-9.713 7.551-25.736 16.554-46.888 16.554h-2.624c-13.944 0-27.27-3.867-39.599-11.499a83.6 83.6 0 01-7.289-5.055 74.649 74.649 0 01-2.48-2.047 82.37 82.37 0 01-4.03-3.603 78.378 78.378 0 01-8.14-9.188c-1.998-2.64-3.62-5.063-4.96-7.415l-.193-.337-.297-.529V40.87l.297-.53.185-.329c1.34-2.36 2.962-4.783 4.96-7.423a79.223 79.223 0 018.108-9.156 84.847 84.847 0 016.558-5.69c.522-.409 1.068-.818 1.63-1.227a85.151 85.151 0 016.815-4.542C41.766 4.83 54.69 1.203 68.183 1.203h2.625zm0-.803h-2.625c-16.03 0-29.146 5.12-38.835 10.89a83.13 83.13 0 00-6.88 4.582c-.562.417-1.116.834-1.645 1.244a84.885 84.885 0 00-6.623 5.737 79.024 79.024 0 00-8.188 9.253c-1.87 2.463-3.58 4.975-5.017 7.51l-.184.33-.402.714v90.678l.402.714.192.338c1.437 2.535 3.155 5.047 5.017 7.503a78.798 78.798 0 008.22 9.276 78.502 78.502 0 004.07 3.635c.835.698 1.662 1.405 2.513 2.063a84.347 84.347 0 007.36 5.103c9.802 6.067 23.32 11.62 40.017 11.62h2.624c21.385 0 37.568-9.1 47.377-16.723a83.896 83.896 0 006.583-5.698c5.33-5.128 9.905-10.93 13.237-16.787l.586-1.044V40.661l-.305-.546-.281-.497c-1.413-2.488-3.099-4.96-4.921-7.383a79.58 79.58 0 00-8.284-9.38 85.37 85.37 0 00-6.623-5.746 84.49 84.49 0 00-8.525-5.826C99.955 5.52 86.847.4 70.808.4z" fill="currentColor"/><path opacity=".5" d="M70.582 15.666c11.229 0 21.99 3.008 31.976 8.94a67.422 67.422 0 015.672 3.767c.467.34.921.685 1.356 1.018a66.85 66.85 0 015.457 4.72 65.15 65.15 0 016.82 7.7c1.637 2.164 2.959 4.141 4.048 6.051l.234.413.167.3v74.87l-.401.713c-2.745 4.805-6.513 9.571-10.901 13.778a66.993 66.993 0 01-5.424 4.68c-8.083 6.263-21.416 13.732-39.017 13.732h-2.184c-11.603 0-22.692-3.209-32.952-9.539a69.564 69.564 0 01-6.065-4.193 62.358 62.358 0 01-2.064-1.698 69.303 69.303 0 01-3.354-2.988 65.121 65.121 0 01-6.773-7.622c-1.663-2.19-3.013-4.2-4.128-6.15l-.16-.28-.248-.439V48.568l.247-.44.154-.272c1.116-1.957 2.465-3.967 4.128-6.157a65.798 65.798 0 016.747-7.595 70.57 70.57 0 015.457-4.72c.434-.34.889-.679 1.356-1.018a70.909 70.909 0 015.671-3.767c10.013-5.925 20.768-8.933 31.997-8.933h2.184zm0-.666h-2.184c-13.34 0-24.255 4.247-32.317 9.033a69.204 69.204 0 00-5.725 3.8c-.467.347-.928.693-1.37 1.032a70.57 70.57 0 00-5.51 4.76 65.605 65.605 0 00-6.813 7.674c-1.557 2.044-2.98 4.127-4.175 6.23l-.154.273-.334.593v75.217l.334.592.16.28c1.196 2.103 2.626 4.187 4.175 6.223a65.353 65.353 0 006.84 7.695 65.281 65.281 0 003.387 3.015c.695.58 1.383 1.165 2.09 1.711a70.285 70.285 0 006.126 4.234c8.156 5.032 19.405 9.638 33.3 9.638h2.183c17.796 0 31.262-7.548 39.425-13.872a69.576 69.576 0 005.477-4.726c4.436-4.253 8.243-9.066 11.015-13.925l.488-.865V48.395l-.254-.453-.234-.412c-1.175-2.064-2.578-4.114-4.094-6.124a66.132 66.132 0 00-6.894-7.782 70.875 70.875 0 00-5.511-4.766c-.441-.339-.902-.685-1.369-1.031a70.38 70.38 0 00-5.725-3.801C94.837 19.246 83.929 15 70.582 15z" fill="currentColor"/></symbol>
<symbol id="i-shape-filled" viewBox="0 0 8 10" fill="none" xmlns="http://www.w3.org/2000/svg"><path d="M3.992 10h-.15a4.24 4.24 0 01-2.202-.626 4.573 4.573 0 01-.483-.335 4.678 4.678 0 01-.84-.861 3.948 3.948 0 01-.284-.432l-.01-.018L0 7.687v-5.21l.023-.04.01-.02a4.538 4.538 0 01.981-1.173c.048-.04.095-.08.143-.118a4.73 4.73 0 01.418-.293 4.245 4.245 0 012.27-.668h.148c1.213 0 2.13.523 2.687.96.128.102.254.212.374.328.302.295.561.628.75.965l.033.06v5.209l-.017.031-.016.029A4.48 4.48 0 016.679 9.04c-.03.024-.062.047-.093.07a4.705 4.705 0 01-.39.264A4.265 4.265 0 013.99 10h.002z" fill="currentColor"/></symbol>
<symbol id="i-shape-gradient" xmlns="http://www.w3.org/2000/svg" viewBox="0 0 80.37 99.35" fill="none"><g mask="url(#a)"><path class="-down" fill="url(#b)" d="M-10 0H90v100H-10z"/><path class="-up" fill="#fff" d="M-10 0H90v100H-10z"/></g></symbol>
<symbol id="i-shape-outline" xmlns="http://www.w3.org/2000/svg" viewBox="0 0 80.37 99.35" fill="none"><path d="M40.93.5h-1.51a43.31 43.31 0 00-22.31 6.26c-1.47.91-2.77 1.76-3.95 2.63l-.94.71a48.76 48.76 0 00-3.8 3.3 45.9 45.9 0 00-4.7 5.32 37.61 37.61 0 00-2.88 4.31l-.11.19-.23.45v52.05l.23.41.11.19a40.42 40.42 0 002.88 4.35 46.38 46.38 0 004.72 5.3c.76.72 1.54 1.42 2.34 2.08.48.4.95.81 1.44 1.19a49.76 49.76 0 004.23 2.93 43.44 43.44 0 0023 6.67h1.49a44.32 44.32 0 0027.21-9.6 48.35 48.35 0 003.78-3.27 43.14 43.14 0 007.6-9.65l.34-.6V23.67l-.18-.32-.16-.28a40.72 40.72 0 00-2.83-4.25 44.4 44.4 0 00-4.76-5.38 45.34 45.34 0 00-3.8-3.3l-.94-.71a47.49 47.49 0 00-4-2.64A43.68 43.68 0 0040.9.5z" stroke-miterlimit="10" stroke="currentColor" stroke-width="var(--stroke-width, 1)"/></symbol>
<symbol id="i-shape-rotate" viewBox="0 0 33 40" fill="none" xmlns="http://www.w3.org/2000/svg"><path d="M16.758.992c3.06 0 5.991.81 8.716 2.41a19.845 19.845 0 011.921 1.291 17.722 17.722 0 013.353 3.35c.446.581.806 1.114 1.101 1.623l.052.088v20.49l-.05.085c-.744 1.294-1.773 2.576-2.968 3.709-.476.451-.975.877-1.48 1.265-2.207 1.69-5.842 3.703-10.638 3.703h-.613c-3.161 0-6.181-.866-8.98-2.571a19.531 19.531 0 01-1.658-1.133c-.187-.143-.378-.304-.563-.458-.36-.3-.651-.555-.918-.806a17.775 17.775 0 01-1.847-2.056 14.826 14.826 0 01-1.121-1.65l-.045-.077-.007-.011V9.757l.007-.011.043-.075c.302-.525.669-1.065 1.123-1.653a17.657 17.657 0 011.84-2.049 18.623 18.623 0 013.415-2.565c2.722-1.6 5.655-2.41 8.713-2.41h.613l-.009-.002zm.009-.66h-.613c-3.738 0-6.796 1.177-9.058 2.504-.59.346-1.125.703-1.604 1.053a19.093 19.093 0 00-1.926 1.604 18.398 18.398 0 00-1.91 2.126 15.761 15.761 0 00-1.17 1.726l-.043.074-.094.164V30.42l.094.163.045.077c.335.582.736 1.159 1.17 1.725.57.743 1.212 1.465 1.917 2.133.306.29.626.569.948.835.195.161.387.322.587.474.5.383 1.076.782 1.718 1.172 2.286 1.395 5.438 2.67 9.333 2.67h.613c4.986 0 8.76-2.09 11.051-3.842a19.756 19.756 0 001.535-1.309c1.244-1.179 2.31-2.512 3.087-3.858l.136-.24V9.583l-.071-.126-.067-.115a16.195 16.195 0 00-1.148-1.696 18.07 18.07 0 00-1.933-2.155 19.25 19.25 0 00-1.546-1.32 19.403 19.403 0 00-1.986-1.337C23.554 1.507 20.496.33 16.758.33l.009.002z" fill="currentColor" fill-opacity=".4"/><path fill-rule="evenodd" clip-rule="evenodd" d="M9.675 19.712c0-.91.638-1.827 1.872-2.545 1.222-.71 2.942-1.165 4.87-1.165 1.927 0 3.647.455 4.869 1.165 1.234.718 1.872 1.635 1.872 2.545 0 1.025-.814 2.062-2.354 2.8l.432.901c1.683-.806 2.922-2.108 2.922-3.7 0-1.416-.982-2.604-2.37-3.41-1.399-.814-3.3-1.301-5.371-1.301-2.072 0-3.973.487-5.372 1.3-1.387.807-2.37 1.995-2.37 3.41 0 1.447 1.111 2.582 2.57 3.325 1.164.594 2.635.99 4.212 1.132l-.904.753.634.775 1.898-1.582.465-.387-.465-.388-1.898-1.581-.634.774.737.614c-1.369-.15-2.618-.504-3.591-1-1.338-.683-2.024-1.556-2.024-2.435z" fill="currentColor"/></symbol>
<symbol id="i-shape" viewBox="0 0 81 100" fill="none" xmlns="http://www.w3.org/2000/svg"><path d="M41.264 2.479c7.535 0 14.751 2.027 21.46 6.026a48.812 48.812 0 014.732 3.228c1.256.975 2.49 2.05 3.674 3.184a44.077 44.077 0 014.583 5.189c1.097 1.454 1.983 2.787 2.71 4.06l.127.22v51.223l-.121.215c-1.834 3.233-4.368 6.439-7.31 9.27a46.349 46.349 0 01-3.646 3.162c-5.432 4.225-14.383 9.26-26.193 9.26h-1.51c-7.783 0-15.219-2.165-22.11-6.429a48.093 48.093 0 01-4.082-2.83c-.462-.359-.93-.761-1.388-1.147a47.742 47.742 0 01-2.258-2.016 44.216 44.216 0 01-4.55-5.14c-1.118-1.47-2.022-2.825-2.76-4.125l-.11-.193-.017-.027V24.39l.017-.027.104-.188c.744-1.31 1.648-2.66 2.766-4.13a43.92 43.92 0 014.533-5.124 46.04 46.04 0 013.674-3.184c.292-.225.6-.457.915-.688a44.13 44.13 0 013.817-2.54c6.704-3.999 13.925-6.026 21.455-6.026h1.51l-.022-.005zm.022-1.647h-1.51c-9.204 0-16.734 2.941-22.303 6.257a46.352 46.352 0 00-3.95 2.633c-.325.237-.644.48-.942.711a47.224 47.224 0 00-3.8 3.3 45.767 45.767 0 00-4.705 5.315c-1.074 1.416-2.054 2.859-2.88 4.313l-.105.188-.232.407V76.05l.232.408.11.193c.826 1.454 1.812 2.897 2.88 4.313a45.567 45.567 0 004.721 5.332 46.216 46.216 0 002.336 2.088c.48.402.953.804 1.443 1.184a47.94 47.94 0 004.23 2.93c5.63 3.487 13.392 6.677 22.982 6.677h1.51c12.278 0 21.57-5.228 27.21-9.607a48.84 48.84 0 003.78-3.272c3.062-2.947 5.69-6.28 7.601-9.645l.336-.6V23.955l-.176-.314-.165-.286c-.816-1.432-1.78-2.848-2.826-4.242a44.974 44.974 0 00-4.76-5.387 47.56 47.56 0 00-3.806-3.3 46.546 46.546 0 00-.942-.71 47.702 47.702 0 00-3.95-2.633C57.999 3.768 50.469.826 41.265.826l.022.006z" fill="currentColor"/></symbol>
<symbol id="i-speaker-wave" xmlns="http://www.w3.org/2000/svg" viewBox="0 0 20 20" fill="currentColor" class="w-5 h-5"><path d="M10 3.75a.75.75 0 00-1.264-.546L4.703 7H3.167a.75.75 0 00-.7.48A6.985 6.985 0 002 10c0 .887.165 1.737.468 2.52.111.29.39.48.7.48h1.535l4.033 3.796A.75.75 0 0010 16.25V3.75zm5.95 1.3a.75.75 0 00-1.06 1.061 5.5 5.5 0 010 7.778.75.75 0 001.06 1.06 7 7 0 000-9.899z"/><path d="M13.829 7.172a.75.75 0 00-1.061 1.06 2.5 2.5 0 010 3.536.75.75 0 001.06 1.06 4 4 0 000-5.656z"/></symbol>
<symbol id="i-speaker-x" xmlns="http://www.w3.org/2000/svg" viewBox="0 0 20 20" fill="currentColor" class="w-5 h-5"><path d="M9.547 3.062A.75.75 0 0110 3.75v12.5a.75.75 0 01-1.264.546L4.703 13H3.167a.75.75 0 01-.7-.48A6.985 6.985 0 012 10c0-.887.165-1.737.468-2.52a.75.75 0 01.7-.48h1.535l4.033-3.796a.75.75 0 01.811-.142zM13.28 7.22a.75.75 0 10-1.06 1.06L13.94 10l-1.72 1.72a.75.75 0 001.06 1.06L15 11.06l1.72 1.72a.75.75 0 101.06-1.06L16.06 10l1.72-1.72a.75.75 0 00-1.06-1.06L15 8.94l-1.72-1.72z"/></symbol>
</svg>